# Exported OBJ from Prisma3D Exporter v2019
g Cube
v 1 -0.3026033 -1
v 1 -0.1026033 -1
v -1 -0.1026033 -1
v -1 -0.3026033 -1
v -1 -0.3026033 1
v -1 -0.1026033 1
v 1 -0.1026033 1
v 1 -0.3026033 1
v 1 -0.3026033 1
v 1 -0.1026033 1
v 1 -0.1026033 -1
v 1 -0.3026033 -1
v -1 -0.3026033 -1
v -1 -0.1026033 -1
v -1 -0.1026033 1
v -1 -0.3026033 1
v 1 -0.1026033 -1
v 1 -0.1026033 1
v -1 -0.1026033 1
v -1 -0.1026033 -1
v -1 -0.3026033 -1
v -1 -0.3026033 1
v 1 -0.3026033 1
v 1 -0.3026033 -1
vn 0 0 -0.7053456
vn 0 0 -0.7053456
vn 0 0 -0.7053456
vn 0 0 -0.7053456
vn 0 0 0.7053456
vn 0 0 0.7053456
vn 0 0 0.7053456
vn 0 0 0.7053456
vn 0.7053456 0 0
vn 0.7053456 0 0
vn 0.7053456 0 0
vn 0.7053456 0 0
vn -0.7053456 0 0
vn -0.7053456 0 0
vn -0.7053456 0 0
vn -0.7053456 0 0
vn 0 0.07053456 0
vn 0 0.07053456 0
vn 0 0.07053456 0
vn 0 0.07053456 0
vn 0 -0.07053456 0
vn 0 -0.07053456 0
vn 0 -0.07053456 0
vn 0 -0.07053456 0
vt 0 0
vt 0 1
vt 1 1
vt 1 0
vt 0 0
vt 0 1
vt 1 1
vt 1 0
vt 0 0
vt 0 1
vt 1 1
vt 1 0
vt 0 0
vt 0 1
vt 1 1
vt 1 0
vt 0 0
vt 0 1
vt 1 1
vt 1 0
vt 0 0
vt 0 1
vt 1 1
vt 1 0
usemtl Material
f 3/3/3 2/2/2 1/1/1
f 3/3/3 1/1/1 4/4/4
f 7/7/7 6/6/6 5/5/5
f 7/7/7 5/5/5 8/8/8
f 11/11/11 10/10/10 9/9/9
f 11/11/11 9/9/9 12/12/12
f 15/15/15 14/14/14 13/13/13
f 15/15/15 13/13/13 16/16/16
f 19/19/19 18/18/18 17/17/17
f 19/19/19 17/17/17 20/20/20
f 23/23/23 22/22/22 21/21/21
f 23/23/23 21/21/21 24/24/24
g Cube
v 0.9972693 -0.1019676 -1.000019
v 0.9972693 0.4009125 -1.000019
v 0.8972693 0.4009125 -1.000019
v 0.8972693 -0.1019676 -1.000019
v 0.8972693 -0.1019676 1.000019
v 0.8972693 0.4009125 1.000019
v 0.9972693 0.4009125 1.000019
v 0.9972693 -0.1019676 1.000019
v 0.9972693 -0.1019676 1.000019
v 0.9972693 0.4009125 1.000019
v 0.9972693 0.4009125 -1.000019
v 0.9972693 -0.1019676 -1.000019
v 0.8972693 -0.1019676 -1.000019
v 0.8972693 0.4009125 -1.000019
v 0.8972693 0.4009125 1.000019
v 0.8972693 -0.1019676 1.000019
v 0.9972693 0.4009125 -1.000019
v 0.9972693 0.4009125 1.000019
v 0.8972693 0.4009125 1.000019
v 0.8972693 0.4009125 -1.000019
v 0.8972693 -0.1019676 -1.000019
v 0.8972693 -0.1019676 1.000019
v 0.9972693 -0.1019676 1.000019
v 0.9972693 -0.1019676 -1.000019
vn 0 0 -0.968676
vn 0 0 -0.968676
vn 0 0 -0.968676
vn 0 0 -0.968676
vn 0 0 0.968676
vn 0 0 0.968676
vn 0 0 0.968676
vn 0 0 0.968676
vn 0.04843288 0 0
vn 0.04843288 0 0
vn 0.04843288 0 0
vn 0.04843288 0 0
vn -0.04843288 0 0
vn -0.04843288 0 0
vn -0.04843288 0 0
vn -0.04843288 0 0
vn 0 0.2435593 0
vn 0 0.2435593 0
vn 0 0.2435593 0
vn 0 0.2435593 0
vn 0 -0.2435593 0
vn 0 -0.2435593 0
vn 0 -0.2435593 0
vn 0 -0.2435593 0
vt 0 0
vt 0 1
vt 1 1
vt 1 0
vt 0 0
vt 0 1
vt 1 1
vt 1 0
vt 0 0
vt 0 1
vt 1 1
vt 1 0
vt 0 0
vt 0 1
vt 1 1
vt 1 0
vt 0 0
vt 0 1
vt 1 1
vt 1 0
vt 0 0
vt 0 1
vt 1 1
vt 1 0
usemtl Material
f 27/27/27 26/26/26 25/25/25
f 27/27/27 25/25/25 28/28/28
f 31/31/31 30/30/30 29/29/29
f 31/31/31 29/29/29 32/32/32
f 35/35/35 34/34/34 33/33/33
f 35/35/35 33/33/33 36/36/36
f 39/39/39 38/38/38 37/37/37
f 39/39/39 37/37/37 40/40/40
f 43/43/43 42/42/42 41/41/41
f 43/43/43 41/41/41 44/44/44
f 47/47/47 46/46/46 45/45/45
f 47/47/47 45/45/45 48/48/48
g Cube 1
v -0.8972852 -0.1058953 -1.000015
v -0.8972852 0.3916158 -1.000015
v -0.9972852 0.3916158 -1.000015
v -0.9972852 -0.1058953 -1.000015
v -0.9972852 -0.1058953 1.000015
v -0.9972852 0.3916158 1.000015
v -0.8972852 0.3916158 1.000015
v -0.8972852 -0.1058953 1.000015
v -0.8972852 -0.1058953 1.000015
v -0.8972852 0.3916158 1.000015
v -0.8972852 0.3916158 -1.000015
v -0.8972852 -0.1058953 -1.000015
v -0.9972852 -0.1058953 -1.000015
v -0.9972852 0.3916158 -1.000015
v -0.9972852 0.3916158 1.000015
v -0.9972852 -0.1058953 1.000015
v -0.8972852 0.3916158 -1.000015
v -0.8972852 0.3916158 1.000015
v -0.9972852 0.3916158 1.000015
v -0.9972852 0.3916158 -1.000015
v -0.9972852 -0.1058953 -1.000015
v -0.9972852 -0.1058953 1.000015
v -0.8972852 -0.1058953 1.000015
v -0.8972852 -0.1058953 -1.000015
vn 0 0 -0.9692866
vn 0 0 -0.9692866
vn 0 0 -0.9692866
vn 0 0 -0.9692866
vn 0 0 0.9692866
vn 0 0 0.9692866
vn 0 0 0.9692866
vn 0 0 0.9692866
vn 0.04846359 0 0
vn 0.04846359 0 0
vn 0.04846359 0 0
vn 0.04846359 0 0
vn -0.04846359 0 0
vn -0.04846359 0 0
vn -0.04846359 0 0
vn -0.04846359 0 0
vn 0 0.2411118 0
vn 0 0.2411118 0
vn 0 0.2411118 0
vn 0 0.2411118 0
vn 0 -0.2411118 0
vn 0 -0.2411118 0
vn 0 -0.2411118 0
vn 0 -0.2411118 0
vt 0 0
vt 0 1
vt 1 1
vt 1 0
vt 0 0
vt 0 1
vt 1 1
vt 1 0
vt 0 0
vt 0 1
vt 1 1
vt 1 0
vt 0 0
vt 0 1
vt 1 1
vt 1 0
vt 0 0
vt 0 1
vt 1 1
vt 1 0
vt 0 0
vt 0 1
vt 1 1
vt 1 0
usemtl Material
f 51/51/51 50/50/50 49/49/49
f 51/51/51 49/49/49 52/52/52
f 55/55/55 54/54/54 53/53/53
f 55/55/55 53/53/53 56/56/56
f 59/59/59 58/58/58 57/57/57
f 59/59/59 57/57/57 60/60/60
f 63/63/63 62/62/62 61/61/61
f 63/63/63 61/61/61 64/64/64
f 67/67/67 66/66/66 65/65/65
f 67/67/67 65/65/65 68/68/68
f 71/71/71 70/70/70 69/69/69
f 71/71/71 69/69/69 72/72/72
g Cube 2
v 1.001575 -0.09917405 -0.9265753
v 1.001575 0.3992987 -0.9265753
v 1.001575 0.3992987 -1.026579
v 1.001575 -0.09917405 -1.026579
v -0.9984593 -0.09917405 -1.02658
v -0.9984593 0.3992987 -1.02658
v -0.9984593 0.3992987 -0.9265755
v -0.9984593 -0.09917405 -0.9265755
v -0.9984593 -0.09917405 -0.9265755
v -0.9984593 0.3992987 -0.9265755
v 1.001575 0.3992987 -0.9265753
v 1.001575 -0.09917405 -0.9265753
v 1.001575 -0.09917405 -1.026579
v 1.001575 0.3992987 -1.026579
v -0.9984593 0.3992987 -1.02658
v -0.9984593 -0.09917405 -1.02658
v 1.001575 0.3992987 -0.9265753
v -0.9984593 0.3992987 -0.9265755
v -0.9984593 0.3992987 -1.02658
v 1.001575 0.3992987 -1.026579
v 1.001575 -0.09917405 -1.026579
v -0.9984593 -0.09917405 -1.02658
v -0.9984593 -0.09917405 -0.9265755
v 1.001575 -0.09917405 -0.9265753
vn 0.9691777 0 1.15535E-07
vn 0.9691777 0 1.15535E-07
vn 0.9691777 0 1.15535E-07
vn 0.9691777 0 1.15535E-07
vn -0.9691777 0 -1.15535E-07
vn -0.9691777 0 -1.15535E-07
vn -0.9691777 0 -1.15535E-07
vn -0.9691777 0 -1.15535E-07
vn -5.776893E-09 0 0.0484601
vn -5.776893E-09 0 0.0484601
vn -5.776893E-09 0 0.0484601
vn -5.776893E-09 0 0.0484601
vn 5.776893E-09 0 -0.0484601
vn 5.776893E-09 0 -0.0484601
vn 5.776893E-09 0 -0.0484601
vn 5.776893E-09 0 -0.0484601
vn 0 0.2415502 0
vn 0 0.2415502 0
vn 0 0.2415502 0
vn 0 0.2415502 0
vn 0 -0.2415502 0
vn 0 -0.2415502 0
vn 0 -0.2415502 0
vn 0 -0.2415502 0
vt 0 0
vt 0 1
vt 1 1
vt 1 0
vt 0 0
vt 0 1
vt 1 1
vt 1 0
vt 0 0
vt 0 1
vt 1 1
vt 1 0
vt 0 0
vt 0 1
vt 1 1
vt 1 0
vt 0 0
vt 0 1
vt 1 1
vt 1 0
vt 0 0
vt 0 1
vt 1 1
vt 1 0
usemtl Material
f 75/75/75 74/74/74 73/73/73
f 75/75/75 73/73/73 76/76/76
f 79/79/79 78/78/78 77/77/77
f 79/79/79 77/77/77 80/80/80
f 83/83/83 82/82/82 81/81/81
f 83/83/83 81/81/81 84/84/84
f 87/87/87 86/86/86 85/85/85
f 87/87/87 85/85/85 88/88/88
f 91/91/91 90/90/90 89/89/89
f 91/91/91 89/89/89 92/92/92
f 95/95/95 94/94/94 93/93/93
f 95/95/95 93/93/93 96/96/96
g Cube 3
v 1.00157 -0.09431675 1.00369
v 1.00157 0.4016935 1.00369
v 1.00157 0.4016935 0.903687
v 1.00157 -0.09431675 0.903687
v -0.9984542 -0.09431675 0.9036868
v -0.9984542 0.4016935 0.9036868
v -0.9984542 0.4016935 1.00369
v -0.9984542 -0.09431675 1.00369
v -0.9984542 -0.09431675 1.00369
v -0.9984542 0.4016935 1.00369
v 1.00157 0.4016935 1.00369
v 1.00157 -0.09431675 1.00369
v 1.00157 -0.09431675 0.903687
v 1.00157 0.4016935 0.903687
v -0.9984542 0.4016935 0.9036868
v -0.9984542 -0.09431675 0.9036868
v 1.00157 0.4016935 1.00369
v -0.9984542 0.4016935 1.00369
v -0.9984542 0.4016935 0.9036868
v 1.00157 0.4016935 0.903687
v 1.00157 -0.09431675 0.903687
v -0.9984542 -0.09431675 0.9036868
v -0.9984542 -0.09431675 1.00369
v 1.00157 -0.09431675 1.00369
vn 0.9694561 0 1.155682E-07
vn 0.9694561 0 1.155682E-07
vn 0.9694561 0 1.155682E-07
vn 0.9694561 0 1.155682E-07
vn -0.9694561 0 -1.155682E-07
vn -0.9694561 0 -1.155682E-07
vn -0.9694561 0 -1.155682E-07
vn -0.9694561 0 -1.155682E-07
vn -5.778509E-09 0 0.04847365
vn -5.778509E-09 0 0.04847365
vn -5.778509E-09 0 0.04847365
vn -5.778509E-09 0 0.04847365
vn 5.778509E-09 0 -0.04847365
vn 5.778509E-09 0 -0.04847365
vn 5.778509E-09 0 -0.04847365
vn 5.778509E-09 0 -0.04847365
vn 0 0.2404272 0
vn 0 0.2404272 0
vn 0 0.2404272 0
vn 0 0.2404272 0
vn 0 -0.2404272 0
vn 0 -0.2404272 0
vn 0 -0.2404272 0
vn 0 -0.2404272 0
vt 0 0
vt 0 1
vt 1 1
vt 1 0
vt 0 0
vt 0 1
vt 1 1
vt 1 0
vt 0 0
vt 0 1
vt 1 1
vt 1 0
vt 0 0
vt 0 1
vt 1 1
vt 1 0
vt 0 0
vt 0 1
vt 1 1
vt 1 0
vt 0 0
vt 0 1
vt 1 1
vt 1 0
usemtl Material
f 99/99/99 98/98/98 97/97/97
f 99/99/99 97/97/97 100/100/100
f 103/103/103 102/102/102 101/101/101
f 103/103/103 101/101/101 104/104/104
f 107/107/107 106/106/106 105/105/105
f 107/107/107 105/105/105 108/108/108
f 111/111/111 110/110/110 109/109/109
f 111/111/111 109/109/109 112/112/112
f 115/115/115 114/114/114 113/113/113
f 115/115/115 113/113/113 116/116/116
f 119/119/119 118/118/118 117/117/117
f 119/119/119 117/117/117 120/120/120
