# dodecahedron_TESS.obj
# Generated by the QMSH-Kernel
# Android Mobile-Editor: Version 0.2.3
#   - vertex : 60
#   - faces : 36
#   - topology : 3 (triangles)
#   - dimension : 3
#   - normals : per-vertex-NXYZ
#   - colours : none
v -0.5326216915046593 0.5326216915046593 -0.5326216915046593
v -0.3291783084953406 0.8617999999999999 0.0
v 0.3291783084953406 0.8617999999999999 0.0
v 0.5326216915046593 0.5326216915046593 -0.5326216915046593
v 0.0 0.3291783084953406 -0.8617999999999999
v 0.0 0.3291783084953406 -0.8617999999999999
v 0.5326216915046593 0.5326216915046593 -0.5326216915046593
v 0.8617999999999999 0.0 -0.3291783084953406
v 0.5326216915046593 -0.5326216915046593 -0.5326216915046593
v 0.0 -0.3291783084953406 -0.8617999999999999
v -0.5326216915046593 0.5326216915046593 -0.5326216915046593
v 0.0 0.3291783084953406 -0.8617999999999999
v 0.0 -0.3291783084953406 -0.8617999999999999
v -0.5326216915046593 -0.5326216915046593 -0.5326216915046593
v -0.8617999999999999 0.0 -0.3291783084953406
v 0.0 -0.3291783084953406 -0.8617999999999999
v 0.5326216915046593 -0.5326216915046593 -0.5326216915046593
v 0.3291783084953406 -0.8617999999999999 0.0
v -0.3291783084953406 -0.8617999999999999 0.0
v -0.5326216915046593 -0.5326216915046593 -0.5326216915046593
v 0.5326216915046593 0.5326216915046593 -0.5326216915046593
v 0.3291783084953406 0.8617999999999999 0.0
v 0.5326216915046593 0.5326216915046593 0.5326216915046593
v 0.8617999999999999 0.0 0.3291783084953406
v 0.8617999999999999 0.0 -0.3291783084953406
v 0.8617999999999999 0.0 -0.3291783084953406
v 0.8617999999999999 0.0 0.3291783084953406
v 0.5326216915046593 -0.5326216915046593 0.5326216915046593
v 0.3291783084953406 -0.8617999999999999 0.0
v 0.5326216915046593 -0.5326216915046593 -0.5326216915046593
v 0.3291783084953406 0.8617999999999999 0.0
v -0.3291783084953406 0.8617999999999999 0.0
v -0.5326216915046593 0.5326216915046593 0.5326216915046593
v 0.0 0.3291783084953406 0.8617999999999999
v 0.5326216915046593 0.5326216915046593 0.5326216915046593
v -0.3291783084953406 0.8617999999999999 0.0
v -0.5326216915046593 0.5326216915046593 -0.5326216915046593
v -0.8617999999999999 0.0 -0.3291783084953406
v -0.8617999999999999 0.0 0.3291783084953406
v -0.5326216915046593 0.5326216915046593 0.5326216915046593
v -0.8617999999999999 0.0 0.3291783084953406
v -0.8617999999999999 0.0 -0.3291783084953406
v -0.5326216915046593 -0.5326216915046593 -0.5326216915046593
v -0.3291783084953406 -0.8617999999999999 0.0
v -0.5326216915046593 -0.5326216915046593 0.5326216915046593
v 0.0 0.3291783084953406 0.8617999999999999
v -0.5326216915046593 0.5326216915046593 0.5326216915046593
v -0.8617999999999999 0.0 0.3291783084953406
v -0.5326216915046593 -0.5326216915046593 0.5326216915046593
v 0.0 -0.3291783084953406 0.8617999999999999
v 0.8617999999999999 0.0 0.3291783084953406
v 0.5326216915046593 0.5326216915046593 0.5326216915046593
v 0.0 0.3291783084953406 0.8617999999999999
v 0.0 -0.3291783084953406 0.8617999999999999
v 0.5326216915046593 -0.5326216915046593 0.5326216915046593
v 0.3291783084953406 -0.8617999999999999 0.0
v 0.5326216915046593 -0.5326216915046593 0.5326216915046593
v 0.0 -0.3291783084953406 0.8617999999999999
v -0.5326216915046593 -0.5326216915046593 0.5326216915046593
v -0.3291783084953406 -0.8617999999999999 0.0
vn 0.0 0.8506508083520401 -0.5257311121191337
vn 0.0 0.8506508083520401 -0.5257311121191337
vn 0.0 0.8506508083520401 -0.5257311121191337
vn 0.0 0.8506508083520401 -0.5257311121191337
vn 0.0 0.8506508083520401 -0.5257311121191337
vn 0.5257311121191337 0.0 -0.8506508083520401
vn 0.5257311121191337 0.0 -0.8506508083520401
vn 0.5257311121191337 0.0 -0.8506508083520401
vn 0.5257311121191337 0.0 -0.8506508083520401
vn 0.5257311121191337 0.0 -0.8506508083520401
vn -0.5257311121191337 0.0 -0.8506508083520401
vn -0.5257311121191337 0.0 -0.8506508083520401
vn -0.5257311121191337 0.0 -0.8506508083520401
vn -0.5257311121191337 0.0 -0.8506508083520401
vn -0.5257311121191337 0.0 -0.8506508083520401
vn 0.0 -0.8506508083520401 -0.5257311121191337
vn 0.0 -0.8506508083520401 -0.5257311121191337
vn 0.0 -0.8506508083520401 -0.5257311121191337
vn 0.0 -0.8506508083520401 -0.5257311121191337
vn 0.0 -0.8506508083520401 -0.5257311121191337
vn 0.8506508083520401 0.5257311121191337 0.0
vn 0.8506508083520401 0.5257311121191337 0.0
vn 0.8506508083520401 0.5257311121191337 0.0
vn 0.8506508083520401 0.5257311121191337 0.0
vn 0.8506508083520401 0.5257311121191337 0.0
vn 0.8506508083520401 -0.5257311121191337 0.0
vn 0.8506508083520401 -0.5257311121191337 0.0
vn 0.8506508083520401 -0.5257311121191337 0.0
vn 0.8506508083520401 -0.5257311121191337 0.0
vn 0.8506508083520401 -0.5257311121191337 0.0
vn 0.0 0.8506508083520401 0.5257311121191337
vn 0.0 0.8506508083520401 0.5257311121191337
vn 0.0 0.8506508083520401 0.5257311121191337
vn 0.0 0.8506508083520401 0.5257311121191337
vn 0.0 0.8506508083520401 0.5257311121191337
vn -0.8506508083520401 0.5257311121191337 0.0
vn -0.8506508083520401 0.5257311121191337 0.0
vn -0.8506508083520401 0.5257311121191337 0.0
vn -0.8506508083520401 0.5257311121191337 0.0
vn -0.8506508083520401 0.5257311121191337 0.0
vn -0.8506508083520401 -0.5257311121191337 0.0
vn -0.8506508083520401 -0.5257311121191337 0.0
vn -0.8506508083520401 -0.5257311121191337 0.0
vn -0.8506508083520401 -0.5257311121191337 0.0
vn -0.8506508083520401 -0.5257311121191337 0.0
vn -0.5257311121191337 0.0 0.8506508083520401
vn -0.5257311121191337 0.0 0.8506508083520401
vn -0.5257311121191337 0.0 0.8506508083520401
vn -0.5257311121191337 0.0 0.8506508083520401
vn -0.5257311121191337 0.0 0.8506508083520401
vn 0.5257311121191337 0.0 0.8506508083520401
vn 0.5257311121191337 0.0 0.8506508083520401
vn 0.5257311121191337 0.0 0.8506508083520401
vn 0.5257311121191337 0.0 0.8506508083520401
vn 0.5257311121191337 0.0 0.8506508083520401
vn 0.0 -0.8506508083520401 0.5257311121191337
vn 0.0 -0.8506508083520401 0.5257311121191337
vn 0.0 -0.8506508083520401 0.5257311121191337
vn 0.0 -0.8506508083520401 0.5257311121191337
vn 0.0 -0.8506508083520401 0.5257311121191337
f 1//1 2//2 3//3
f 1//1 3//3 4//4
f 1//1 4//4 5//5
f 6//6 7//7 8//8
f 6//6 8//8 9//9
f 6//6 9//9 10//10
f 11//11 12//12 13//13
f 11//11 13//13 14//14
f 11//11 14//14 15//15
f 16//16 17//17 18//18
f 16//16 18//18 19//19
f 16//16 19//19 20//20
f 21//21 22//22 23//23
f 21//21 23//23 24//24
f 21//21 24//24 25//25
f 26//26 27//27 28//28
f 26//26 28//28 29//29
f 26//26 29//29 30//30
f 31//31 32//32 33//33
f 31//31 33//33 34//34
f 31//31 34//34 35//35
f 36//36 37//37 38//38
f 36//36 38//38 39//39
f 36//36 39//39 40//40
f 41//41 42//42 43//43
f 41//41 43//43 44//44
f 41//41 44//44 45//45
f 46//46 47//47 48//48
f 46//46 48//48 49//49
f 46//46 49//49 50//50
f 51//51 52//52 53//53
f 51//51 53//53 54//54
f 51//51 54//54 55//55
f 56//56 57//57 58//58
f 56//56 58//58 59//59
f 56//56 59//59 60//60
