# Exported OBJ from Prisma3D Exporter v2019
g Cube
v 0.05015402 0 -0.04923703
v 0.05015402 1 -0.04923703
v -0.05015402 1 -0.04923703
v -0.05015402 0 -0.04923703
v -0.05015402 0 0.04923703
v -0.05015402 1 0.04923703
v 0.05015402 1 0.04923703
v 0.05015402 0 0.04923703
v 0.05015402 0 0.04923703
v 0.05015402 1 0.04923703
v 0.05015402 1 -0.04923703
v 0.05015402 0 -0.04923703
v -0.05015402 0 -0.04923703
v -0.05015402 1 -0.04923703
v -0.05015402 1 0.04923703
v -0.05015402 0 0.04923703
v -0.05015402 0 -0.04923703
v -0.05015402 0 0.04923703
v 0.05015402 0 0.04923703
v 0.05015402 0 -0.04923703
vn 0 0 -0.09751537
vn 0 0 -0.09751537
vn 0 0 -0.09751537
vn 0 0 -0.09751537
vn 0 0 0.09751537
vn 0 0 0.09751537
vn 0 0 0.09751537
vn 0 0 0.09751537
vn 0.09933149 0 0
vn 0.09933149 0 0
vn 0.09933149 0 0
vn 0.09933149 0 0
vn -0.09933149 0 0
vn -0.09933149 0 0
vn -0.09933149 0 0
vn -0.09933149 0 0
vn 0 -0.9902645 0
vn 0 -0.9902645 0
vn 0 -0.9902645 0
vn 0 -0.9902645 0
vt 0 0
vt 0 1
vt 1 1
vt 1 0
vt 0 0
vt 0 1
vt 1 1
vt 1 0
vt 0 0
vt 0 1
vt 1 1
vt 1 0
vt 0 0
vt 0 1
vt 1 1
vt 1 0
vt 0 0
vt 0 1
vt 1 1
vt 1 0
usemtl Material
f 3/3/3 2/2/2 1/1/1
f 3/3/3 1/1/1 4/4/4
f 7/7/7 6/6/6 5/5/5
f 7/7/7 5/5/5 8/8/8
f 11/11/11 10/10/10 9/9/9
f 11/11/11 9/9/9 12/12/12
f 15/15/15 14/14/14 13/13/13
f 15/15/15 13/13/13 16/16/16
f 19/19/19 18/18/18 17/17/17
f 19/19/19 17/17/17 20/20/20
g Pyramid
v -0.4780273 1.176507 -5.080195E-05
v -0.4780273 1.176507 5.055449E-05
v -0.4780271 1.176151 5.055449E-05
v -0.4780271 1.176151 -5.080195E-05
v 0.0497247 0.9987797 -0.05067735
v 0.0497247 0.9987797 0.05067737
v 0.04946029 1.354662 0.05067737
v 0.04946029 1.354662 -0.05067735
v 0.04946029 1.354662 0.05067737
v -0.4780273 1.176507 5.055449E-05
v -0.4780273 1.176507 -5.080195E-05
v 0.04946029 1.354662 -0.05067735
v -0.4780271 1.176151 -5.080195E-05
v -0.04394272 1.03026 -0.04169195
v 0.0497247 0.9987797 -0.05067735
v 0.04946029 1.354662 -0.05067735
v -0.4780273 1.176507 -5.080195E-05
v 0.0497247 0.9987797 0.05067737
v -0.04657507 1.031145 0.04143941
v -0.4780271 1.176151 5.055449E-05
v -0.4780273 1.176507 5.055449E-05
v 0.04946029 1.354662 0.05067737
v -0.04394272 1.03026 -0.04169195
v -0.4780271 1.176151 -5.080195E-05
v -0.4780271 1.176151 5.055449E-05
v -0.04657507 1.031145 0.04143941
vn -0.8187211 -0.0006083356 -2.104685E-07
vn -0.8187211 -0.0006083356 -2.104685E-07
vn -0.8187211 -0.0006083356 -2.104685E-07
vn -0.8187211 -0.0006083356 -2.104685E-07
vn 0.8187211 0.0006083356 2.104685E-07
vn 0.8187211 0.0006083356 2.104685E-07
vn 0.8187211 0.0006083356 2.104685E-07
vn 0.8187211 0.0006083356 2.104685E-07
vn -0.3662173 0.4937584 -9.449568E-08
vn -0.3662173 0.4937584 -9.449568E-08
vn -0.3662173 0.4937584 -9.449568E-08
vn -0.3662173 0.4937584 -9.449568E-08
vn -0.3658501 -0.0002718383 -0.140699
vn -0.3658501 -0.0002718383 -0.140699
vn -0.3658501 -0.0002718383 -0.140699
vn -0.3658501 -0.0002718383 -0.140699
vn -0.3658501 -0.0002718383 -0.140699
vn -0.3658502 -0.0002718381 0.1406988
vn -0.3658502 -0.0002718381 0.1406988
vn -0.3658502 -0.0002718381 0.1406988
vn -0.3658502 -0.0002718381 0.1406988
vn -0.3658502 -0.0002718381 0.1406988
vn -0.3654831 -0.494302 -9.18577E-08
vn -0.3654831 -0.494302 -9.18577E-08
vn -0.3654831 -0.494302 -9.18577E-08
vn -0.3654831 -0.494302 -9.18577E-08
vt 0 0
vt 0 1
vt 1 1
vt 1 0
vt 0 0
vt 0 1
vt 1 1
vt 1 0
vt 0 -1
vt 0 0
vt 1 0
vt 1 -1
vt 1 0
vt 1 -0.8225161
vt 1 -1
vt 0 -1
vt 0 0
vt 0 -1
vt 0 -0.8175283
vt 0 0
vt 1 0
vt 1 -1
vt 0 -0.8225161
vt 0 0
vt 1 0
vt 1 -0.8175283
usemtl Material
f 23/23/23 22/22/22 21/21/21
f 23/23/23 21/21/21 24/24/24
f 27/27/27 26/26/26 25/25/25
f 27/27/27 25/25/25 28/28/28
f 31/31/31 30/30/30 29/29/29
f 31/31/31 29/29/29 32/32/32
f 35/35/35 34/34/34 36/36/36
f 34/34/34 37/37/37 36/36/36
f 34/34/34 33/33/33 37/37/37
f 39/39/39 42/42/42 41/41/41
f 38/38/38 42/42/42 39/39/39
f 39/39/39 41/41/41 40/40/40
f 45/45/45 44/44/44 43/43/43
f 45/45/45 43/43/43 46/46/46
g Cube
usemtl Material
